<?xml version="1.0" encoding="UTF-8" standalone="no"?>
<svg width="296.333mm" height="25.4mm"
 xmlns="http://www.w3.org/2000/svg" xmlns:xlink="http://www.w3.org/1999/xlink"  version="1.2" baseProfile="tiny">
<title>Qt SVG Document</title>
<desc>Generated with Qt</desc>
<defs>
</defs>
<g fill="none" stroke="black" stroke-width="1" fill-rule="evenodd" stroke-linecap="square" stroke-linejoin="bevel" >

<g fill="none" stroke="#000000" stroke-opacity="1" stroke-width="1" stroke-linecap="square" stroke-linejoin="bevel" transform="matrix(1,0,0,1,0,0)"
font-family="Ubuntu" font-size="11" font-weight="400" font-style="normal" 
>
</g>

<g fill="none" stroke="#000000" stroke-opacity="1" stroke-width="1" stroke-linecap="square" stroke-linejoin="bevel" transform="matrix(1,0,0,1,0,0)"
font-family="Ubuntu" font-size="11" font-weight="400" font-style="normal" 
>
</g>

<g fill="none" stroke="#000000" stroke-opacity="1" stroke-width="1" stroke-linecap="square" stroke-linejoin="bevel" transform="matrix(2,0,0,2,0.002,72)"
font-family="Ubuntu" font-size="11" font-weight="400" font-style="normal" 
>
</g>

<g fill="#ffffff" fill-opacity="1" stroke="none" transform="matrix(2,0,0,2,0.002,72)"
font-family="Ubuntu" font-size="11" font-weight="400" font-style="normal" 
>
<rect x="-0.001" y="-36" width="419.969" height="36"/>
</g>

<g fill="none" stroke="#000000" stroke-opacity="1" stroke-width="1" stroke-linecap="square" stroke-linejoin="bevel" transform="matrix(2,0,0,2,0.002,72)"
font-family="Ubuntu" font-size="11" font-weight="400" font-style="normal" 
>
</g>

<g fill="none" stroke="#000000" stroke-opacity="1" stroke-width="1" stroke-linecap="square" stroke-linejoin="bevel" transform="matrix(2,0,0,2,0.002,72)"
font-family="Ubuntu" font-size="11" font-weight="400" font-style="normal" 
>
</g>

<g fill="none" stroke="#000000" stroke-opacity="1" stroke-width="1" stroke-linecap="square" stroke-linejoin="bevel" transform="matrix(2,0,0,2,0.002,72)"
font-family="Ubuntu" font-size="11" font-weight="400" font-style="normal" 
>
</g>

<g fill="none" stroke="#000000" stroke-opacity="1" stroke-width="1" stroke-linecap="square" stroke-linejoin="bevel" transform="matrix(2,0,0,2,0.002,72)"
font-family="Ubuntu" font-size="11" font-weight="400" font-style="normal" 
>
</g>

<g fill="none" stroke="#000000" stroke-opacity="1" stroke-width="1" stroke-linecap="square" stroke-linejoin="round" transform="matrix(2,0,0,2,0.002,72)"
font-family="Ubuntu" font-size="11" font-weight="400" font-style="normal" 
>
<rect x="122.39" y="-35.5" width="53" height="35"/>
</g>

<g fill="none" stroke="#000000" stroke-opacity="1" stroke-width="1" stroke-linecap="square" stroke-linejoin="bevel" transform="matrix(2,0,0,2,0.002,72)"
font-family="Ubuntu" font-size="11" font-weight="400" font-style="normal" 
>
</g>

<g fill="none" stroke="#000000" stroke-opacity="1" stroke-width="1" stroke-linecap="square" stroke-linejoin="bevel" transform="matrix(2,0,0,2,277.813,22)"
font-family="Ubuntu" font-size="11" font-weight="400" font-style="normal" 
>
</g>

<g fill="none" stroke="#000000" stroke-opacity="1" stroke-width="1" stroke-linecap="square" stroke-linejoin="bevel" transform="matrix(2,0,0,2,277.813,22)"
font-family="sans" font-size="11" font-weight="100" font-style="normal" 
>
</g>

<g fill="#000000" fill-opacity="1" stroke="#000000" stroke-opacity="1" stroke-width="1" stroke-linecap="square" stroke-linejoin="round" transform="matrix(2,0,0,2,277.813,22)"
font-family="sans" font-size="11" font-weight="100" font-style="normal" 
>
<path vector-effect="none" fill-rule="nonzero" d="M2.79688,2.98438 L3.70313,2.98438 L0.90625,12.0156 L0,12.0156 L2.79688,2.98438 M4.73438,4.98438 L5.73438,4.98438 L5.73438,11.1094 C5.73438,11.8698 5.58854,12.4219 5.29688,12.7656 C5.00521,13.1094 4.53125,13.2813 3.875,13.2813 L3.5,13.2813 L3.5,12.4531 L3.76563,12.4531 C4.14063,12.4531 4.39583,12.3646 4.53125,12.1875 C4.66667,12.0104 4.73438,11.651 4.73438,11.1094 L4.73438,4.98438 M4.73438,2.64063 L5.73438,2.64063 L5.73438,3.89063 L4.73438,3.89063 L4.73438,2.64063 M10.125,5.67188 C9.59375,5.67188 9.17448,5.88021 8.86719,6.29688 C8.5599,6.71354 8.40625,7.28125 8.40625,8 C8.40625,8.71875 8.55729,9.28385 8.85938,9.69531 C9.16146,10.1068 9.58333,10.3125 10.125,10.3125 C10.6458,10.3125 11.0599,10.1068 11.3672,9.69531 C11.6745,9.28385 11.8281,8.71875 11.8281,8 C11.8281,7.28125 11.6745,6.71354 11.3672,6.29688 C11.0599,5.88021 10.6458,5.67188 10.125,5.67188 M10.125,4.84375 C10.9792,4.84375 11.651,5.1224 12.1406,5.67969 C12.6302,6.23698 12.875,7.01042 12.875,8 C12.875,8.97917 12.6302,9.75 12.1406,10.3125 C11.651,10.875 10.9792,11.1563 10.125,11.1563 C9.26042,11.1563 8.58333,10.875 8.09375,10.3125 C7.60417,9.75 7.35938,8.97917 7.35938,8 C7.35938,7.01042 7.60417,6.23698 8.09375,5.67969 C8.58333,5.1224 9.26042,4.84375 10.125,4.84375 M17.0156,11.5625 C16.7344,12.2813 16.4609,12.7474 16.1953,12.9609 C15.9297,13.1745 15.5729,13.2813 15.125,13.2813 L14.3438,13.2813 L14.3438,12.4688 L14.9219,12.4688 C15.1927,12.4688 15.4036,12.4036 15.5547,12.2734 C15.7057,12.1432 15.8698,11.8385 16.0469,11.3594 L16.2344,10.9063 L13.7969,4.98438 L14.8438,4.98438 L16.7188,9.6875 L18.6094,4.98438 L19.6563,4.98438 L17.0156,11.5625"/>
</g>

<g fill="none" stroke="#000000" stroke-opacity="1" stroke-width="1" stroke-linecap="square" stroke-linejoin="bevel" transform="matrix(2,0,0,2,277.813,22)"
font-family="sans" font-size="11" font-weight="100" font-style="normal" 
>
</g>

<g fill="none" stroke="#000000" stroke-opacity="1" stroke-width="1" stroke-linecap="square" stroke-linejoin="bevel" transform="matrix(2,0,0,2,277.813,22)"
font-family="Ubuntu" font-size="11" font-weight="400" font-style="normal" 
>
</g>

<g fill="none" stroke="#000000" stroke-opacity="1" stroke-width="1" stroke-linecap="square" stroke-linejoin="bevel" transform="matrix(2,0,0,2,0.002,72)"
font-family="Ubuntu" font-size="11" font-weight="400" font-style="normal" 
>
</g>

<g fill="none" stroke="#000000" stroke-opacity="1" stroke-width="1" stroke-linecap="square" stroke-linejoin="bevel" transform="matrix(2,0,0,2,0.002,72)"
font-family="Ubuntu" font-size="11" font-weight="400" font-style="normal" 
>
</g>

<g fill="none" stroke="#000000" stroke-opacity="1" stroke-width="1" stroke-linecap="square" stroke-linejoin="bevel" transform="matrix(2,0,0,2,0.002,72)"
font-family="Ubuntu" font-size="11" font-weight="400" font-style="normal" 
>
</g>

<g fill="none" stroke="#000000" stroke-opacity="1" stroke-width="1" stroke-linecap="square" stroke-linejoin="round" transform="matrix(2,0,0,2,0.002,72)"
font-family="Ubuntu" font-size="11" font-weight="400" font-style="normal" 
>
<ellipse cx="304.93" cy="-18" rx="114.538" ry="17.5"/>
</g>

<g fill="none" stroke="#000000" stroke-opacity="1" stroke-width="1" stroke-linecap="square" stroke-linejoin="bevel" transform="matrix(2,0,0,2,0.002,72)"
font-family="Ubuntu" font-size="11" font-weight="400" font-style="normal" 
>
</g>

<g fill="none" stroke="#000000" stroke-opacity="1" stroke-width="1" stroke-linecap="square" stroke-linejoin="bevel" transform="matrix(2,0,0,2,485.018,22)"
font-family="Ubuntu" font-size="11" font-weight="400" font-style="normal" 
>
</g>

<g fill="none" stroke="#000000" stroke-opacity="1" stroke-width="1" stroke-linecap="square" stroke-linejoin="bevel" transform="matrix(2,0,0,2,485.018,22)"
font-family="sans" font-size="11" font-weight="100" font-style="normal" 
>
</g>

<g fill="#000000" fill-opacity="1" stroke="#000000" stroke-opacity="1" stroke-width="1" stroke-linecap="square" stroke-linejoin="round" transform="matrix(2,0,0,2,485.018,22)"
font-family="sans" font-size="11" font-weight="100" font-style="normal" 
>
<path vector-effect="none" fill-rule="nonzero" d="M2.79688,2.98438 L3.70313,2.98438 L0.90625,12.0156 L0,12.0156 L2.79688,2.98438 M5.71875,3.28125 L5.71875,4.98438 L7.75,4.98438 L7.75,5.75 L5.71875,5.75 L5.71875,9.01563 C5.71875,9.50521 5.78646,9.82031 5.92188,9.96094 C6.05729,10.1016 6.32813,10.1719 6.73438,10.1719 L7.75,10.1719 L7.75,11 L6.73438,11 C5.97396,11 5.44792,10.8568 5.15625,10.5703 C4.86458,10.2839 4.71875,9.76563 4.71875,9.01563 L4.71875,5.75 L4,5.75 L4,4.98438 L4.71875,4.98438 L4.71875,3.28125 L5.71875,3.28125 M14.2031,7.75 L14.2031,8.23438 L9.65625,8.23438 C9.69792,8.91146 9.90104,9.42708 10.2656,9.78125 C10.6302,10.1354 11.1406,10.3125 11.7969,10.3125 C12.1823,10.3125 12.5521,10.2656 12.9063,10.1719 C13.2604,10.0781 13.6146,9.94271 13.9688,9.76563 L13.9688,10.6875 C13.6146,10.8438 13.25,10.9609 12.875,11.0391 C12.5,11.1172 12.125,11.1563 11.75,11.1563 C10.7813,11.1563 10.0182,10.8776 9.46094,10.3203 C8.90365,9.76302 8.625,9.00521 8.625,8.04688 C8.625,7.06771 8.89063,6.28906 9.42188,5.71094 C9.95313,5.13281 10.6719,4.84375 11.5781,4.84375 C12.3802,4.84375 13.0182,5.10417 13.4922,5.625 C13.9661,6.14583 14.2031,6.85417 14.2031,7.75 M13.2031,7.45313 C13.2031,6.91146 13.0547,6.47917 12.7578,6.15625 C12.4609,5.83333 12.0677,5.67188 11.5781,5.67188 C11.026,5.67188 10.5859,5.82813 10.2578,6.14063 C9.92969,6.45313 9.73958,6.89063 9.6875,7.45313 L13.2031,7.45313 M15.8125,2.64063 L16.8125,2.64063 L16.8125,11 L15.8125,11 L15.8125,2.64063 M24.0156,7.75 L24.0156,8.23438 L19.4688,8.23438 C19.5104,8.91146 19.7135,9.42708 20.0781,9.78125 C20.4427,10.1354 20.9531,10.3125 21.6094,10.3125 C21.9948,10.3125 22.3646,10.2656 22.7188,10.1719 C23.0729,10.0781 23.4271,9.94271 23.7813,9.76563 L23.7813,10.6875 C23.4271,10.8438 23.0625,10.9609 22.6875,11.0391 C22.3125,11.1172 21.9375,11.1563 21.5625,11.1563 C20.5938,11.1563 19.8307,10.8776 19.2734,10.3203 C18.7161,9.76302 18.4375,9.00521 18.4375,8.04688 C18.4375,7.06771 18.7031,6.28906 19.2344,5.71094 C19.7656,5.13281 20.4844,4.84375 21.3906,4.84375 C22.1927,4.84375 22.8307,5.10417 23.3047,5.625 C23.7786,6.14583 24.0156,6.85417 24.0156,7.75 M23.0156,7.45313 C23.0156,6.91146 22.8672,6.47917 22.5703,6.15625 C22.2734,5.83333 21.8802,5.67188 21.3906,5.67188 C20.8385,5.67188 20.3984,5.82813 20.0703,6.14063 C19.7422,6.45313 19.5521,6.89063 19.5,7.45313 L23.0156,7.45313 M27.9688,5.67188 C27.4375,5.67188 27.0182,5.88021 26.7109,6.29688 C26.4036,6.71354 26.25,7.28125 26.25,8 C26.25,8.71875 26.401,9.28385 26.7031,9.69531 C27.0052,10.1068 27.4271,10.3125 27.9688,10.3125 C28.4896,10.3125 28.9036,10.1068 29.2109,9.69531 C29.5182,9.28385 29.6719,8.71875 29.6719,8 C29.6719,7.28125 29.5182,6.71354 29.2109,6.29688 C28.9036,5.88021 28.4896,5.67188 27.9688,5.67188 M27.9688,4.84375 C28.8229,4.84375 29.4948,5.1224 29.9844,5.67969 C30.474,6.23698 30.7188,7.01042 30.7188,8 C30.7188,8.97917 30.474,9.75 29.9844,10.3125 C29.4948,10.875 28.8229,11.1563 27.9688,11.1563 C27.1042,11.1563 26.4271,10.875 25.9375,10.3125 C25.4479,9.75 25.2031,8.97917 25.2031,8 C25.2031,7.01042 25.4479,6.23698 25.9375,5.67969 C26.4271,5.1224 27.1042,4.84375 27.9688,4.84375 M33.3125,10.0938 L33.3125,13.2813 L32.3125,13.2813 L32.3125,4.98438 L33.3125,4.98438 L33.3125,5.89063 C33.5104,5.53646 33.7682,5.27344 34.0859,5.10156 C34.4036,4.92969 34.7865,4.84375 35.2344,4.84375 C35.9635,4.84375 36.5547,5.13281 37.0078,5.71094 C37.4609,6.28906 37.6875,7.05208 37.6875,8 C37.6875,8.94792 37.4609,9.71094 37.0078,10.2891 C36.5547,10.8672 35.9635,11.1563 35.2344,11.1563 C34.7865,11.1563 34.4036,11.0703 34.0859,10.8984 C33.7682,10.7266 33.5104,10.4583 33.3125,10.0938 M36.6719,8 C36.6719,7.27083 36.5208,6.70052 36.2188,6.28906 C35.9167,5.8776 35.5052,5.67188 34.9844,5.67188 C34.4635,5.67188 34.0547,5.8776 33.7578,6.28906 C33.4609,6.70052 33.3125,7.27083 33.3125,8 C33.3125,8.72917 33.4609,9.29948 33.7578,9.71094 C34.0547,10.1224 34.4635,10.3281 34.9844,10.3281 C35.5052,10.3281 35.9167,10.1224 36.2188,9.71094 C36.5208,9.29948 36.6719,8.72917 36.6719,8 M43.8906,12.8281 L43.8906,13.5938 L38.1719,13.5938 L38.1719,12.8281 L43.8906,12.8281 M45.7969,3.28125 L45.7969,4.98438 L47.8281,4.98438 L47.8281,5.75 L45.7969,5.75 L45.7969,9.01563 C45.7969,9.50521 45.8646,9.82031 46,9.96094 C46.1354,10.1016 46.4063,10.1719 46.8125,10.1719 L47.8281,10.1719 L47.8281,11 L46.8125,11 C46.0521,11 45.526,10.8568 45.2344,10.5703 C44.9427,10.2839 44.7969,9.76563 44.7969,9.01563 L44.7969,5.75 L44.0781,5.75 L44.0781,4.98438 L44.7969,4.98438 L44.7969,3.28125 L45.7969,3.28125 M48.5625,4.98438 L49.5469,4.98438 L50.7813,9.67188 L52.0156,4.98438 L53.1719,4.98438 L54.4063,9.67188 L55.6406,4.98438 L56.625,4.98438 L55.0625,11 L53.8906,11 L52.5938,6.0625 L51.2969,11 L50.125,11 L48.5625,4.98438 M58.1094,4.98438 L59.1094,4.98438 L59.1094,11 L58.1094,11 L58.1094,4.98438 M58.1094,2.64063 L59.1094,2.64063 L59.1094,3.89063 L58.1094,3.89063 L58.1094,2.64063 M65,5.15625 L65,6.09375 C64.7188,5.94792 64.4271,5.84115 64.125,5.77344 C63.8229,5.70573 63.5104,5.67188 63.1875,5.67188 C62.6979,5.67188 62.3307,5.7474 62.0859,5.89844 C61.8411,6.04948 61.7188,6.27083 61.7188,6.5625 C61.7188,6.79167 61.8073,6.97135 61.9844,7.10156 C62.1615,7.23177 62.5156,7.35938 63.0469,7.48438 L63.375,7.5625 C64.0833,7.70833 64.5833,7.91927 64.875,8.19531 C65.1667,8.47135 65.3125,8.85417 65.3125,9.34375 C65.3125,9.89583 65.0938,10.3359 64.6563,10.6641 C64.2188,10.9922 63.6094,11.1563 62.8281,11.1563 C62.5052,11.1563 62.1693,11.125 61.8203,11.0625 C61.4714,11 61.1042,10.9063 60.7188,10.7813 L60.7188,9.76563 C61.0833,9.95313 61.4427,10.0938 61.7969,10.1875 C62.151,10.2813 62.5052,10.3281 62.8594,10.3281 C63.3177,10.3281 63.6719,10.2474 63.9219,10.0859 C64.1719,9.92448 64.2969,9.70313 64.2969,9.42188 C64.2969,9.15104 64.2083,8.94271 64.0313,8.79688 C63.8542,8.65104 63.4583,8.51563 62.8438,8.39063 L62.5,8.29688 C61.8854,8.17188 61.4427,7.97656 61.1719,7.71094 C60.901,7.44531 60.7656,7.07813 60.7656,6.60938 C60.7656,6.04688 60.9661,5.61198 61.3672,5.30469 C61.7682,4.9974 62.3385,4.84375 63.0781,4.84375 C63.4427,4.84375 63.7865,4.86979 64.1094,4.92188 C64.4323,4.97396 64.7292,5.05208 65,5.15625 M67.8594,3.28125 L67.8594,4.98438 L69.8906,4.98438 L69.8906,5.75 L67.8594,5.75 L67.8594,9.01563 C67.8594,9.50521 67.9271,9.82031 68.0625,9.96094 C68.1979,10.1016 68.4688,10.1719 68.875,10.1719 L69.8906,10.1719 L69.8906,11 L68.875,11 C68.1146,11 67.5885,10.8568 67.2969,10.5703 C67.0052,10.2839 66.8594,9.76563 66.8594,9.01563 L66.8594,5.75 L66.1406,5.75 L66.1406,4.98438 L66.8594,4.98438 L66.8594,3.28125 L67.8594,3.28125 M75.7656,12.8281 L75.7656,13.5938 L70.0469,13.5938 L70.0469,12.8281 L75.7656,12.8281 M76.6875,4.98438 L77.6875,4.98438 L77.6875,11.1094 C77.6875,11.8698 77.5417,12.4219 77.25,12.7656 C76.9583,13.1094 76.4844,13.2813 75.8281,13.2813 L75.4531,13.2813 L75.4531,12.4531 L75.7188,12.4531 C76.0938,12.4531 76.349,12.3646 76.4844,12.1875 C76.6198,12.0104 76.6875,11.651 76.6875,11.1094 L76.6875,4.98438 M76.6875,2.64063 L77.6875,2.64063 L77.6875,3.89063 L76.6875,3.89063 L76.6875,2.64063 M82.0781,5.67188 C81.5469,5.67188 81.1276,5.88021 80.8203,6.29688 C80.513,6.71354 80.3594,7.28125 80.3594,8 C80.3594,8.71875 80.5104,9.28385 80.8125,9.69531 C81.1146,10.1068 81.5365,10.3125 82.0781,10.3125 C82.599,10.3125 83.013,10.1068 83.3203,9.69531 C83.6276,9.28385 83.7813,8.71875 83.7813,8 C83.7813,7.28125 83.6276,6.71354 83.3203,6.29688 C83.013,5.88021 82.599,5.67188 82.0781,5.67188 M82.0781,4.84375 C82.9323,4.84375 83.6042,5.1224 84.0938,5.67969 C84.5833,6.23698 84.8281,7.01042 84.8281,8 C84.8281,8.97917 84.5833,9.75 84.0938,10.3125 C83.6042,10.875 82.9323,11.1563 82.0781,11.1563 C81.2135,11.1563 80.5365,10.875 80.0469,10.3125 C79.5573,9.75 79.3125,8.97917 79.3125,8 C79.3125,7.01042 79.5573,6.23698 80.0469,5.67969 C80.5365,5.1224 81.2135,4.84375 82.0781,4.84375 M88.9688,11.5625 C88.6875,12.2813 88.4141,12.7474 88.1484,12.9609 C87.8828,13.1745 87.526,13.2813 87.0781,13.2813 L86.2969,13.2813 L86.2969,12.4688 L86.875,12.4688 C87.1458,12.4688 87.3568,12.4036 87.5078,12.2734 C87.6589,12.1432 87.8229,11.8385 88,11.3594 L88.1875,10.9063 L85.75,4.98438 L86.7969,4.98438 L88.6719,9.6875 L90.5625,4.98438 L91.6094,4.98438 L88.9688,11.5625 M97.5313,12.8281 L97.5313,13.5938 L91.8125,13.5938 L91.8125,12.8281 L97.5313,12.8281 M103.453,7.375 L103.453,11 L102.469,11 L102.469,7.40625 C102.469,6.83333 102.359,6.40625 102.141,6.125 C101.922,5.84375 101.589,5.70313 101.141,5.70313 C100.609,5.70313 100.19,5.8724 99.8828,6.21094 C99.5755,6.54948 99.4219,7.01042 99.4219,7.59375 L99.4219,11 L98.4219,11 L98.4219,4.98438 L99.4219,4.98438 L99.4219,5.92188 C99.651,5.55729 99.9271,5.28646 100.25,5.10938 C100.573,4.93229 100.943,4.84375 101.359,4.84375 C102.047,4.84375 102.568,5.05729 102.922,5.48438 C103.276,5.91146 103.453,6.54167 103.453,7.375 M107.766,5.67188 C107.234,5.67188 106.815,5.88021 106.508,6.29688 C106.201,6.71354 106.047,7.28125 106.047,8 C106.047,8.71875 106.198,9.28385 106.5,9.69531 C106.802,10.1068 107.224,10.3125 107.766,10.3125 C108.286,10.3125 108.701,10.1068 109.008,9.69531 C109.315,9.28385 109.469,8.71875 109.469,8 C109.469,7.28125 109.315,6.71354 109.008,6.29688 C108.701,5.88021 108.286,5.67188 107.766,5.67188 M107.766,4.84375 C108.62,4.84375 109.292,5.1224 109.781,5.67969 C110.271,6.23698 110.516,7.01042 110.516,8 C110.516,8.97917 110.271,9.75 109.781,10.3125 C109.292,10.875 108.62,11.1563 107.766,11.1563 C106.901,11.1563 106.224,10.875 105.734,10.3125 C105.245,9.75 105,8.97917 105,8 C105,7.01042 105.245,6.23698 105.734,5.67969 C106.224,5.1224 106.901,4.84375 107.766,4.84375 M116.109,5.89063 L116.109,2.64063 L117.094,2.64063 L117.094,11 L116.109,11 L116.109,10.0938 C115.901,10.4583 115.638,10.7266 115.32,10.8984 C115.003,11.0703 114.62,11.1563 114.172,11.1563 C113.453,11.1563 112.865,10.8672 112.406,10.2891 C111.948,9.71094 111.719,8.94792 111.719,8 C111.719,7.05208 111.948,6.28906 112.406,5.71094 C112.865,5.13281 113.453,4.84375 114.172,4.84375 C114.62,4.84375 115.003,4.92969 115.32,5.10156 C115.638,5.27344 115.901,5.53646 116.109,5.89063 M112.734,8 C112.734,8.72917 112.885,9.29948 113.188,9.71094 C113.49,10.1224 113.901,10.3281 114.422,10.3281 C114.943,10.3281 115.354,10.1224 115.656,9.71094 C115.958,9.29948 116.109,8.72917 116.109,8 C116.109,7.27083 115.958,6.70052 115.656,6.28906 C115.354,5.8776 114.943,5.67188 114.422,5.67188 C113.901,5.67188 113.49,5.8776 113.188,6.28906 C112.885,6.70052 112.734,7.27083 112.734,8 M124.266,7.75 L124.266,8.23438 L119.719,8.23438 C119.76,8.91146 119.964,9.42708 120.328,9.78125 C120.693,10.1354 121.203,10.3125 121.859,10.3125 C122.245,10.3125 122.615,10.2656 122.969,10.1719 C123.323,10.0781 123.677,9.94271 124.031,9.76563 L124.031,10.6875 C123.677,10.8438 123.313,10.9609 122.938,11.0391 C122.563,11.1172 122.188,11.1563 121.813,11.1563 C120.844,11.1563 120.081,10.8776 119.523,10.3203 C118.966,9.76302 118.688,9.00521 118.688,8.04688 C118.688,7.06771 118.953,6.28906 119.484,5.71094 C120.016,5.13281 120.734,4.84375 121.641,4.84375 C122.443,4.84375 123.081,5.10417 123.555,5.625 C124.029,6.14583 124.266,6.85417 124.266,7.75 M123.266,7.45313 C123.266,6.91146 123.117,6.47917 122.82,6.15625 C122.523,5.83333 122.13,5.67188 121.641,5.67188 C121.089,5.67188 120.648,5.82813 120.32,6.14063 C119.992,6.45313 119.802,6.89063 119.75,7.45313 L123.266,7.45313"/>
</g>

<g fill="none" stroke="#000000" stroke-opacity="1" stroke-width="1" stroke-linecap="square" stroke-linejoin="bevel" transform="matrix(2,0,0,2,485.018,22)"
font-family="sans" font-size="11" font-weight="100" font-style="normal" 
>
</g>

<g fill="none" stroke="#000000" stroke-opacity="1" stroke-width="1" stroke-linecap="square" stroke-linejoin="bevel" transform="matrix(2,0,0,2,485.018,22)"
font-family="Ubuntu" font-size="11" font-weight="400" font-style="normal" 
>
</g>

<g fill="none" stroke="#000000" stroke-opacity="1" stroke-width="1" stroke-linecap="square" stroke-linejoin="bevel" transform="matrix(2,0,0,2,0.002,72)"
font-family="Ubuntu" font-size="11" font-weight="400" font-style="normal" 
>
</g>

<g fill="none" stroke="#000000" stroke-opacity="1" stroke-width="1" stroke-linecap="square" stroke-linejoin="bevel" transform="matrix(2,0,0,2,0.002,72)"
font-family="Ubuntu" font-size="11" font-weight="400" font-style="normal" 
>
</g>

<g fill="none" stroke="#000000" stroke-opacity="1" stroke-width="1" stroke-linecap="square" stroke-linejoin="bevel" transform="matrix(2,0,0,2,0.002,72)"
font-family="Ubuntu" font-size="11" font-weight="400" font-style="normal" 
>
</g>

<g fill="none" stroke="#000000" stroke-opacity="1" stroke-width="1" stroke-linecap="square" stroke-linejoin="round" transform="matrix(2,0,0,2,0.002,72)"
font-family="Ubuntu" font-size="11" font-weight="400" font-style="normal" 
>
<ellipse cx="53.945" cy="-18" rx="53.446" ry="17.5"/>
</g>

<g fill="none" stroke="#000000" stroke-opacity="1" stroke-width="1" stroke-linecap="square" stroke-linejoin="bevel" transform="matrix(2,0,0,2,0.002,72)"
font-family="Ubuntu" font-size="11" font-weight="400" font-style="normal" 
>
</g>

<g fill="none" stroke="#000000" stroke-opacity="1" stroke-width="1" stroke-linecap="square" stroke-linejoin="bevel" transform="matrix(2,0,0,2,55.0014,22)"
font-family="Ubuntu" font-size="11" font-weight="400" font-style="normal" 
>
</g>

<g fill="none" stroke="#000000" stroke-opacity="1" stroke-width="1" stroke-linecap="square" stroke-linejoin="bevel" transform="matrix(2,0,0,2,55.0014,22)"
font-family="sans" font-size="11" font-weight="100" font-style="normal" 
>
</g>

<g fill="#000000" fill-opacity="1" stroke="#000000" stroke-opacity="1" stroke-width="1" stroke-linecap="square" stroke-linejoin="round" transform="matrix(2,0,0,2,55.0014,22)"
font-family="sans" font-size="11" font-weight="100" font-style="normal" 
>
<path vector-effect="none" fill-rule="nonzero" d="M2.79688,2.98438 L3.70313,2.98438 L0.90625,12.0156 L0,12.0156 L2.79688,2.98438 M4.73438,4.98438 L5.73438,4.98438 L5.73438,11.1094 C5.73438,11.8698 5.58854,12.4219 5.29688,12.7656 C5.00521,13.1094 4.53125,13.2813 3.875,13.2813 L3.5,13.2813 L3.5,12.4531 L3.76563,12.4531 C4.14063,12.4531 4.39583,12.3646 4.53125,12.1875 C4.66667,12.0104 4.73438,11.651 4.73438,11.1094 L4.73438,4.98438 M4.73438,2.64063 L5.73438,2.64063 L5.73438,3.89063 L4.73438,3.89063 L4.73438,2.64063 M10.125,5.67188 C9.59375,5.67188 9.17448,5.88021 8.86719,6.29688 C8.5599,6.71354 8.40625,7.28125 8.40625,8 C8.40625,8.71875 8.55729,9.28385 8.85938,9.69531 C9.16146,10.1068 9.58333,10.3125 10.125,10.3125 C10.6458,10.3125 11.0599,10.1068 11.3672,9.69531 C11.6745,9.28385 11.8281,8.71875 11.8281,8 C11.8281,7.28125 11.6745,6.71354 11.3672,6.29688 C11.0599,5.88021 10.6458,5.67188 10.125,5.67188 M10.125,4.84375 C10.9792,4.84375 11.651,5.1224 12.1406,5.67969 C12.6302,6.23698 12.875,7.01042 12.875,8 C12.875,8.97917 12.6302,9.75 12.1406,10.3125 C11.651,10.875 10.9792,11.1563 10.125,11.1563 C9.26042,11.1563 8.58333,10.875 8.09375,10.3125 C7.60417,9.75 7.35938,8.97917 7.35938,8 C7.35938,7.01042 7.60417,6.23698 8.09375,5.67969 C8.58333,5.1224 9.26042,4.84375 10.125,4.84375 M17.0156,11.5625 C16.7344,12.2813 16.4609,12.7474 16.1953,12.9609 C15.9297,13.1745 15.5729,13.2813 15.125,13.2813 L14.3438,13.2813 L14.3438,12.4688 L14.9219,12.4688 C15.1927,12.4688 15.4036,12.4036 15.5547,12.2734 C15.7057,12.1432 15.8698,11.8385 16.0469,11.3594 L16.2344,10.9063 L13.7969,4.98438 L14.8438,4.98438 L16.7188,9.6875 L18.6094,4.98438 L19.6563,4.98438 L17.0156,11.5625 M25.5781,12.8281 L25.5781,13.5938 L19.8594,13.5938 L19.8594,12.8281 L25.5781,12.8281 M31.5,7.375 L31.5,11 L30.5156,11 L30.5156,7.40625 C30.5156,6.83333 30.4063,6.40625 30.1875,6.125 C29.9688,5.84375 29.6354,5.70313 29.1875,5.70313 C28.6563,5.70313 28.237,5.8724 27.9297,6.21094 C27.6224,6.54948 27.4688,7.01042 27.4688,7.59375 L27.4688,11 L26.4688,11 L26.4688,4.98438 L27.4688,4.98438 L27.4688,5.92188 C27.6979,5.55729 27.974,5.28646 28.2969,5.10938 C28.6198,4.93229 28.9896,4.84375 29.4063,4.84375 C30.0938,4.84375 30.6146,5.05729 30.9688,5.48438 C31.3229,5.91146 31.5,6.54167 31.5,7.375 M35.8125,5.67188 C35.2813,5.67188 34.862,5.88021 34.5547,6.29688 C34.2474,6.71354 34.0938,7.28125 34.0938,8 C34.0938,8.71875 34.2448,9.28385 34.5469,9.69531 C34.849,10.1068 35.2708,10.3125 35.8125,10.3125 C36.3333,10.3125 36.7474,10.1068 37.0547,9.69531 C37.362,9.28385 37.5156,8.71875 37.5156,8 C37.5156,7.28125 37.362,6.71354 37.0547,6.29688 C36.7474,5.88021 36.3333,5.67188 35.8125,5.67188 M35.8125,4.84375 C36.6667,4.84375 37.3385,5.1224 37.8281,5.67969 C38.3177,6.23698 38.5625,7.01042 38.5625,8 C38.5625,8.97917 38.3177,9.75 37.8281,10.3125 C37.3385,10.875 36.6667,11.1563 35.8125,11.1563 C34.9479,11.1563 34.2708,10.875 33.7813,10.3125 C33.2917,9.75 33.0469,8.97917 33.0469,8 C33.0469,7.01042 33.2917,6.23698 33.7813,5.67969 C34.2708,5.1224 34.9479,4.84375 35.8125,4.84375 M44.1563,5.89063 L44.1563,2.64063 L45.1406,2.64063 L45.1406,11 L44.1563,11 L44.1563,10.0938 C43.9479,10.4583 43.6849,10.7266 43.3672,10.8984 C43.0495,11.0703 42.6667,11.1563 42.2188,11.1563 C41.5,11.1563 40.9115,10.8672 40.4531,10.2891 C39.9948,9.71094 39.7656,8.94792 39.7656,8 C39.7656,7.05208 39.9948,6.28906 40.4531,5.71094 C40.9115,5.13281 41.5,4.84375 42.2188,4.84375 C42.6667,4.84375 43.0495,4.92969 43.3672,5.10156 C43.6849,5.27344 43.9479,5.53646 44.1563,5.89063 M40.7813,8 C40.7813,8.72917 40.9323,9.29948 41.2344,9.71094 C41.5365,10.1224 41.9479,10.3281 42.4688,10.3281 C42.9896,10.3281 43.401,10.1224 43.7031,9.71094 C44.0052,9.29948 44.1563,8.72917 44.1563,8 C44.1563,7.27083 44.0052,6.70052 43.7031,6.28906 C43.401,5.8776 42.9896,5.67188 42.4688,5.67188 C41.9479,5.67188 41.5365,5.8776 41.2344,6.28906 C40.9323,6.70052 40.7813,7.27083 40.7813,8 M52.3125,7.75 L52.3125,8.23438 L47.7656,8.23438 C47.8073,8.91146 48.0104,9.42708 48.375,9.78125 C48.7396,10.1354 49.25,10.3125 49.9063,10.3125 C50.2917,10.3125 50.6615,10.2656 51.0156,10.1719 C51.3698,10.0781 51.724,9.94271 52.0781,9.76563 L52.0781,10.6875 C51.724,10.8438 51.3594,10.9609 50.9844,11.0391 C50.6094,11.1172 50.2344,11.1563 49.8594,11.1563 C48.8906,11.1563 48.1276,10.8776 47.5703,10.3203 C47.013,9.76302 46.7344,9.00521 46.7344,8.04688 C46.7344,7.06771 47,6.28906 47.5313,5.71094 C48.0625,5.13281 48.7813,4.84375 49.6875,4.84375 C50.4896,4.84375 51.1276,5.10417 51.6016,5.625 C52.0755,6.14583 52.3125,6.85417 52.3125,7.75 M51.3125,7.45313 C51.3125,6.91146 51.1641,6.47917 50.8672,6.15625 C50.5703,5.83333 50.1771,5.67188 49.6875,5.67188 C49.1354,5.67188 48.6953,5.82813 48.3672,6.14063 C48.0391,6.45313 47.849,6.89063 47.7969,7.45313 L51.3125,7.45313"/>
</g>

<g fill="none" stroke="#000000" stroke-opacity="1" stroke-width="1" stroke-linecap="square" stroke-linejoin="bevel" transform="matrix(2,0,0,2,55.0014,22)"
font-family="sans" font-size="11" font-weight="100" font-style="normal" 
>
</g>

<g fill="none" stroke="#000000" stroke-opacity="1" stroke-width="1" stroke-linecap="square" stroke-linejoin="bevel" transform="matrix(2,0,0,2,55.0014,22)"
font-family="Ubuntu" font-size="11" font-weight="400" font-style="normal" 
>
</g>

<g fill="none" stroke="#000000" stroke-opacity="1" stroke-width="1" stroke-linecap="square" stroke-linejoin="bevel" transform="matrix(2,0,0,2,0.002,72)"
font-family="Ubuntu" font-size="11" font-weight="400" font-style="normal" 
>
</g>

<g fill="none" stroke="#000000" stroke-opacity="1" stroke-width="1" stroke-linecap="square" stroke-linejoin="bevel" transform="matrix(2,0,0,2,0.002,72)"
font-family="Ubuntu" font-size="11" font-weight="400" font-style="normal" 
>
</g>

<g fill="none" stroke="#000000" stroke-opacity="1" stroke-width="1" stroke-linecap="square" stroke-linejoin="bevel" transform="matrix(2,0,0,2,0.002,72)"
font-family="Ubuntu" font-size="11" font-weight="400" font-style="normal" 
>
</g>

<g fill="none" stroke="#000000" stroke-opacity="1" stroke-width="1" stroke-linecap="square" stroke-linejoin="round" transform="matrix(2,0,0,2,0.002,72)"
font-family="Ubuntu" font-size="11" font-weight="400" font-style="normal" 
>
<path vector-effect="none" fill-rule="evenodd" d="M176.02,-18 C177.07,-18 178.15,-18 179.24,-18 "/>
</g>

<g fill="none" stroke="#000000" stroke-opacity="1" stroke-width="1" stroke-linecap="square" stroke-linejoin="bevel" transform="matrix(2,0,0,2,0.002,72)"
font-family="Ubuntu" font-size="11" font-weight="400" font-style="normal" 
>
</g>

<g fill="none" stroke="#000000" stroke-opacity="1" stroke-width="1" stroke-linecap="square" stroke-linejoin="bevel" transform="matrix(2,0,0,2,0.002,72)"
font-family="Ubuntu" font-size="11" font-weight="400" font-style="normal" 
>
</g>

<g fill="#000000" fill-opacity="1" stroke="#000000" stroke-opacity="1" stroke-width="1" stroke-linecap="square" stroke-linejoin="round" transform="matrix(2,0,0,2,0.002,72)"
font-family="Ubuntu" font-size="11" font-weight="400" font-style="normal" 
>
<path vector-effect="none" fill-rule="evenodd" d="M179.24,-18 L179.24,-14.3635 L189.63,-18 L179.24,-21.6365 L179.24,-18"/>
</g>

<g fill="none" stroke="#000000" stroke-opacity="1" stroke-width="1" stroke-linecap="square" stroke-linejoin="bevel" transform="matrix(2,0,0,2,0.002,72)"
font-family="Ubuntu" font-size="11" font-weight="400" font-style="normal" 
>
</g>

<g fill="none" stroke="#000000" stroke-opacity="1" stroke-width="1" stroke-linecap="square" stroke-linejoin="bevel" transform="matrix(2,0,0,2,0.002,72)"
font-family="Ubuntu" font-size="11" font-weight="400" font-style="normal" 
>
</g>

<g fill="none" stroke="#000000" stroke-opacity="1" stroke-width="1" stroke-linecap="square" stroke-linejoin="bevel" transform="matrix(2,0,0,2,0.002,72)"
font-family="Ubuntu" font-size="11" font-weight="400" font-style="normal" 
>
</g>

<g fill="none" stroke="#000000" stroke-opacity="1" stroke-width="1" stroke-linecap="square" stroke-linejoin="bevel" transform="matrix(2,0,0,2,0.002,72)"
font-family="Ubuntu" font-size="11" font-weight="400" font-style="normal" 
>
</g>

<g fill="none" stroke="#000000" stroke-opacity="1" stroke-width="1" stroke-linecap="square" stroke-linejoin="round" transform="matrix(2,0,0,2,0.002,72)"
font-family="Ubuntu" font-size="11" font-weight="400" font-style="normal" 
>
<path vector-effect="none" fill-rule="evenodd" d="M107.93,-18 C109.12,-18 110.29,-18 111.46,-18 "/>
</g>

<g fill="none" stroke="#000000" stroke-opacity="1" stroke-width="1" stroke-linecap="square" stroke-linejoin="bevel" transform="matrix(2,0,0,2,0.002,72)"
font-family="Ubuntu" font-size="11" font-weight="400" font-style="normal" 
>
</g>

<g fill="none" stroke="#000000" stroke-opacity="1" stroke-width="1" stroke-linecap="square" stroke-linejoin="bevel" transform="matrix(2,0,0,2,0.002,72)"
font-family="Ubuntu" font-size="11" font-weight="400" font-style="normal" 
>
</g>

<g fill="#000000" fill-opacity="1" stroke="#000000" stroke-opacity="1" stroke-width="1" stroke-linecap="square" stroke-linejoin="round" transform="matrix(2,0,0,2,0.002,72)"
font-family="Ubuntu" font-size="11" font-weight="400" font-style="normal" 
>
<path vector-effect="none" fill-rule="evenodd" d="M111.46,-18 L111.46,-14.437 L121.64,-18 L111.46,-21.563 L111.46,-18"/>
</g>

<g fill="none" stroke="#000000" stroke-opacity="1" stroke-width="1" stroke-linecap="square" stroke-linejoin="bevel" transform="matrix(2,0,0,2,0.002,72)"
font-family="Ubuntu" font-size="11" font-weight="400" font-style="normal" 
>
</g>

<g fill="none" stroke="#000000" stroke-opacity="1" stroke-width="1" stroke-linecap="square" stroke-linejoin="bevel" transform="matrix(1,0,0,1,0,0)"
font-family="Ubuntu" font-size="11" font-weight="400" font-style="normal" 
>
</g>
</g>
</svg>
